<svg width="60" height="60" viewBox="0 0 60 60" fill="none" xmlns="http://www.w3.org/2000/svg">
<rect width="60" height="60" rx="30" fill="white" fill-opacity="0.07"/>
<path d="M22.7201 16C22.4277 16 22.1295 16.1071 21.9184 16.3183C21.7073 16.5294 21.6001 16.8276 21.6001 17.12V18.24H18.2401C17.9477 18.24 17.6495 18.3471 17.4384 18.5583C17.2273 18.7694 17.1201 19.0676 17.1201 19.36V23.84V41.76C17.1201 42.0524 17.2273 42.3506 17.4384 42.5617C17.6495 42.7729 17.9477 42.88 18.2401 42.88H41.7601C42.0526 42.88 42.3507 42.7729 42.5618 42.5617C42.773 42.3506 42.8801 42.0524 42.8801 41.76V23.84V19.36C42.8801 19.0676 42.773 18.7694 42.5618 18.5583C42.3507 18.3471 42.0526 18.24 41.7601 18.24H38.4001V17.12C38.4001 16.8276 38.293 16.5294 38.0818 16.3183C37.8707 16.1071 37.5726 16 37.2801 16H36.1601C35.8677 16 35.5695 16.1071 35.3584 16.3183C35.1473 16.5294 35.0401 16.8276 35.0401 17.12V18.24H24.9601V17.12C24.9601 16.8276 24.853 16.5294 24.6418 16.3183C24.4307 16.1071 24.1326 16 23.8401 16H22.7201ZM22.7201 17.12H23.8401V20.48H22.7201V17.12ZM36.1601 17.12H37.2801V18.7059C37.2701 18.7664 37.2701 18.8281 37.2801 18.8886V20.48H36.1601V17.12ZM18.2401 19.36H21.6001V20.48C21.6001 20.7724 21.7073 21.0706 21.9184 21.2817C22.1295 21.4929 22.4277 21.6 22.7201 21.6H23.8401C24.1326 21.6 24.4307 21.4929 24.6418 21.2817C24.853 21.0706 24.9601 20.7724 24.9601 20.48V19.36H35.0401V20.48C35.0401 20.7724 35.1473 21.0706 35.3584 21.2817C35.5695 21.4929 35.8677 21.6 36.1601 21.6H37.2801C37.5726 21.6 37.8707 21.4929 38.0818 21.2817C38.293 21.0706 38.4001 20.7724 38.4001 20.48V19.36H41.7601V23.28H18.2401V19.36ZM18.2401 24.4H41.7601V41.76H18.2401V24.4ZM26.0714 26.6323C26.0446 26.633 26.0179 26.6355 25.9915 26.64H22.1601C22.0116 26.64 21.8692 26.699 21.7642 26.804C21.6591 26.9091 21.6001 27.0515 21.6001 27.2V31.0259C21.5901 31.0864 21.5901 31.1481 21.6001 31.2086V34.9459C21.5901 35.0064 21.5901 35.0681 21.6001 35.1286V38.96C21.6001 39.1085 21.6591 39.2509 21.7642 39.356C21.8692 39.461 22.0116 39.52 22.1601 39.52H25.9861C26.0465 39.53 26.1082 39.53 26.1687 39.52H29.9061C29.9665 39.53 30.0282 39.53 30.0887 39.52H32.8001H33.8261C33.8865 39.53 33.9482 39.53 34.0087 39.52H37.8401C37.9886 39.52 38.1311 39.461 38.2361 39.356C38.3411 39.2509 38.4001 39.1085 38.4001 38.96V35.1341C38.4101 35.0736 38.4101 35.0119 38.4001 34.9514V31.2141C38.4101 31.1536 38.4101 31.0919 38.4001 31.0314V27.2C38.4001 27.0515 38.3411 26.9091 38.2361 26.804C38.1311 26.699 37.9886 26.64 37.8401 26.64H34.0142C33.9537 26.63 33.892 26.63 33.8315 26.64H30.0942C30.0337 26.63 29.972 26.63 29.9115 26.64H26.1742C26.1402 26.6343 26.1058 26.6317 26.0714 26.6323ZM22.7201 27.76H25.5201V30.56H22.7201V27.76ZM26.6401 27.76H29.4401V30.56H26.6401V27.76ZM30.5601 27.76H33.3601V30.56H30.5601V27.76ZM34.4801 27.76H37.2801V30.56H34.4801V27.76ZM22.7201 31.68H25.5201V34.48H22.7201V31.68ZM26.6401 31.68H29.4401V34.48H26.6401V31.68ZM30.5601 31.68H33.3601V34.48H30.5601V31.68ZM34.4801 31.68H37.2801V34.48H34.4801V31.68ZM22.7201 35.6H25.5201V38.4H22.7201V35.6ZM26.6401 35.6H29.4401V38.4H26.6401V35.6ZM30.5601 35.6H33.3601V38.4H32.8001H30.5601V35.6ZM34.4801 35.6H37.2801V38.4H34.4801V35.6Z" fill="#606571"/>
</svg>
